<svg width="32" height="32" viewBox="0 0 32 32" fill="none" xmlns="http://www.w3.org/2000/svg">
<g clip-path="url(#clip0_478_1399)">
<path d="M9.33333 14.6667C9.33333 13.9594 9.61428 13.2811 10.1144 12.781C10.6145 12.281 11.2928 12 12 12H25.3333C26.0406 12 26.7188 12.281 27.2189 12.781C27.719 13.2811 28 13.9594 28 14.6667V22.6667C28 23.3739 27.719 24.0522 27.2189 24.5523C26.7188 25.0524 26.0406 25.3333 25.3333 25.3333H12C11.2928 25.3333 10.6145 25.0524 10.1144 24.5523C9.61428 24.0522 9.33333 23.3739 9.33333 22.6667V14.6667Z" stroke="#276CDA" stroke-width="2" stroke-linecap="round" stroke-linejoin="round"/>
<path d="M16 18.6667C16 19.3739 16.281 20.0522 16.781 20.5523C17.2811 21.0524 17.9594 21.3333 18.6667 21.3333C19.3739 21.3333 20.0522 21.0524 20.5523 20.5523C21.0524 20.0522 21.3333 19.3739 21.3333 18.6667C21.3333 17.9594 21.0524 17.2811 20.5523 16.781C20.0522 16.281 19.3739 16 18.6667 16C17.9594 16 17.2811 16.281 16.781 16.781C16.281 17.2811 16 17.9594 16 18.6667Z" stroke="#276CDA" stroke-width="2" stroke-linecap="round" stroke-linejoin="round"/>
<path d="M22.6667 12.0001V9.33341C22.6667 8.62617 22.3857 7.94789 21.8856 7.4478C21.3855 6.9477 20.7072 6.66675 20 6.66675H6.66667C5.95942 6.66675 5.28115 6.9477 4.78105 7.4478C4.28095 7.94789 4 8.62617 4 9.33341V17.3334C4 18.0407 4.28095 18.7189 4.78105 19.219C5.28115 19.7191 5.95942 20.0001 6.66667 20.0001H9.33333" stroke="#276CDA" stroke-width="2" stroke-linecap="round" stroke-linejoin="round"/>
</g>
<defs>
<clipPath id="clip0_478_1399">
<rect width="32" height="32" fill="white"/>
</clipPath>
</defs>
</svg>
