<svg width="32" height="32" viewBox="0 0 32 32" fill="none" xmlns="http://www.w3.org/2000/svg">
<g clip-path="url(#clip0_478_1374)">
<path d="M13.3333 18.6667L28 4" stroke="#276CDA" stroke-width="2" stroke-linecap="round" stroke-linejoin="round"/>
<path d="M28 4L19.3333 28C19.2748 28.1277 19.1809 28.2358 19.0627 28.3117C18.9445 28.3875 18.8071 28.4278 18.6666 28.4278C18.5262 28.4278 18.3887 28.3875 18.2706 28.3117C18.1524 28.2358 18.0585 28.1277 18 28L13.3333 18.6667L3.99997 14C3.87232 13.9415 3.76414 13.8476 3.6883 13.7294C3.61246 13.6112 3.57214 13.4738 3.57214 13.3333C3.57214 13.1929 3.61246 13.0554 3.6883 12.9373C3.76414 12.8191 3.87232 12.7252 3.99997 12.6667L28 4Z" stroke="#276CDA" stroke-width="2" stroke-linecap="round" stroke-linejoin="round"/>
</g>
<defs>
<clipPath id="clip0_478_1374">
<rect width="32" height="32" fill="white"/>
</clipPath>
</defs>
</svg>
