<svg width="500" height="480" viewBox="0 0 500 480" fill="none" xmlns="http://www.w3.org/2000/svg">
<path opacity="0.03" d="M250 438.24C364.047 438.24 456.5 349.485 456.5 240C456.5 130.515 364.047 41.76 250 41.76C135.953 41.76 43.5 130.515 43.5 240C43.5 349.485 135.953 438.24 250 438.24Z" fill="black"/>
<path d="M245.363 90.1023C243.496 86.2906 242.262 83.8426 239.541 81.7512C238.116 80.6554 237.133 80.3117 233.785 78.9586C226.956 76.1986 223.417 74.7677 219.862 73.0071C215.362 70.778 214.204 69.6884 209.261 67.6296C206.273 66.385 204.677 65.9424 202.994 65.7365C198.616 65.2004 195.155 66.4474 194.172 66.7704C187.618 68.9232 179.02 66.8424 158.578 65.9395C137.777 65.0208 134.777 66.65 121.271 64.2552C111.354 62.497 112.03 61.452 108.09 61.5221C83.3211 61.9632 61.6641 103.19 67.9206 109.443C69.3171 110.839 71.0051 109.393 78.9326 111.219C82.3951 112.016 86.9856 113.116 91.2766 116.163C95.2871 119.012 94.3671 120.245 97.6921 122.895C106.289 129.745 121.082 128.384 125.936 126.205C126.579 125.916 127.776 125.285 129.423 125.338C131.938 125.418 132.561 126.996 135.556 127.385C137.699 127.664 138.6 127.014 139.147 127.651C140.004 128.65 137.998 130.48 138.168 133.156C138.195 133.586 138.338 134.965 140.836 137.923C143.007 140.493 145.998 144.033 151.216 145.744C151.751 145.92 154.332 146.245 159.495 146.896C162.32 147.253 163.678 147.385 165.446 146.962C167.3 146.518 167.581 145.946 169.201 145.788C171.447 145.567 172.49 146.511 174.506 146.906C176.806 147.358 178.573 146.741 181.961 145.561C184.6 144.64 188.419 143.309 191.705 140.026C193.179 138.553 193.852 137.381 195.036 137.46C196.576 137.563 196.795 139.637 199.235 141.098C201.103 142.217 203.031 142.233 204.244 142.243C204.961 142.249 208.457 142.213 211.461 139.918C212.531 139.1 212.538 138.761 214.661 135.937C218.084 131.385 219.118 130.871 221.707 126.922C222.654 125.478 223.127 124.756 223.51 123.916C225.232 120.143 224.933 116.649 224.74 114.681C224.484 112.063 223.708 104.129 218.293 99.5347C217.369 98.7509 215.618 97.478 215.915 96.3125C216.138 95.4399 217.455 94.836 218.6 94.801C220.477 94.7429 221.494 96.2266 223.952 98.0559C227.313 100.557 228.04 99.7392 229.439 101.157C232.529 104.286 230.4 109.701 230.943 120.717C230.998 121.828 231.151 124.241 232.913 125.971C233.234 126.286 234.423 127.42 236.34 127.677C236.602 127.712 237.909 127.869 239.423 127.273C241.094 126.614 241.896 125.48 243.642 123.062C247.901 117.167 247.887 117.33 248.377 116.383C249.282 114.636 250.238 112.789 250.644 110.341C251.132 107.402 250.405 104.824 248.929 99.7872C247.989 96.5722 247.143 93.7349 245.363 90.1023Z" fill="#F3C9A7"/>
<path d="M247.33 103.339C246.185 99.6711 246.228 98.2839 245.069 96.7536C244.18 95.58 244.171 91.7751 236.815 89.2589C229.5 86.7567 225.843 85.5053 221.626 85.6973C214.645 86.0151 215.578 89.0261 208.429 89.2426C203.512 89.3919 200.289 89.1461 194.299 90.7272C190.357 91.7679 174.374 95.2896 174.666 95.5325C176.509 97.0628 191.985 100.213 195.95 100.161C199.248 100.117 203.703 99.4762 207.33 100.209C209.784 100.705 222.344 106.464 222.648 105.66C222.774 105.326 219.913 100.058 216.428 97.7501C215.928 97.4184 215.982 96.6476 216.265 96.1306C216.748 95.2479 217.655 94.8087 218.441 94.6709C220.364 94.334 221.106 97.5384 225.103 99.2415C226.526 99.8477 226.928 99.6528 228.183 100.407C229.855 101.412 230.869 103.069 230.942 104.191C231.157 107.459 231.157 107.459 230.961 114.438C230.834 118.965 229.171 120.462 229.306 122.54C229.469 125.072 229.659 129.334 232.539 131.903C233.855 133.076 235.301 133.054 236.568 132.673C237.358 132.435 238.913 131.592 239.841 130.581C241.005 129.313 243.457 124.002 244.719 121.93C246.258 119.402 246.501 119.597 248.028 117.411C248.795 116.314 250.904 113.22 251.132 109.159C251.249 107.058 248.468 106.985 247.33 103.339Z" fill="#EABB9B"/>
<path d="M159.242 117.952C150.464 120.073 143.063 123.611 137.019 127.451C138.152 127.407 138.746 127.183 139.148 127.65C140.005 128.649 137.999 130.479 138.169 133.155C138.196 133.585 138.339 134.964 140.837 137.922C143.008 140.492 145.999 144.032 151.217 145.743C151.752 145.919 154.333 146.244 159.496 146.895C162.321 147.251 163.679 147.384 165.447 146.961C167.301 146.517 167.582 145.945 169.202 145.787C171.448 145.566 172.491 146.51 174.507 146.905C176.807 147.357 178.574 146.74 181.962 145.559C184.601 144.639 188.42 143.308 191.706 140.025C193.18 138.552 193.853 137.38 195.037 137.459C196.577 137.562 196.796 139.636 199.236 141.097C201.104 142.216 203.032 142.232 204.245 142.242C204.962 142.247 208.458 142.212 211.462 139.917C212.532 139.099 212.539 138.76 214.662 135.936C217.675 131.929 218.838 131.048 220.839 128.203C201.371 117.105 179.52 113.053 159.242 117.952Z" fill="#EABB9B"/>
<path d="M208.123 124.65C204.371 122.101 200.281 122.456 197.246 122.72C196.667 122.77 191.489 123.279 187.345 126.556C186.086 127.552 185.413 128.415 185.515 129.279C185.625 130.204 186.571 130.675 188.109 131.627C190.33 133 193.182 134.763 195.305 137.15C196.836 138.87 196.543 139.29 197.817 140.219C199.704 141.594 201.795 142.023 203.763 142.149C206.678 142.336 209.01 142.19 211.084 140.662C213.11 139.169 213.663 136.978 213.803 136.294C214.211 134.296 213.624 132.728 213.038 131.223C212.534 129.927 211.326 126.825 208.123 124.65Z" fill="#EFC4A3"/>
<path d="M175.496 126.991C170.86 123.608 170.894 122.5 168.807 122.137C166.067 121.661 163.558 123.146 161.296 124.487C159.807 125.369 158.794 125.988 158.421 127.156C158.122 128.089 158.345 129.023 160.07 132.152C161.131 134.076 161.799 135.088 163.914 138.388C165.889 141.47 166.476 142.414 167.814 143.621C169.132 144.81 170.29 145.454 170.677 145.661C172.22 146.487 173.988 147.432 176.168 147.192C178.685 146.914 180.286 145.217 181.107 144.348C181.755 143.661 183.387 141.736 183.721 138.847C184.215 134.586 181.508 131.504 180.901 130.812C179.529 129.25 179.095 129.616 175.496 126.991Z" fill="#EFC4A3"/>
<path d="M152.414 128.563C148.21 126.805 145.859 127.078 144.651 127.343C142.314 127.855 138.746 129.538 138.128 132.55C137.599 135.133 139.518 137.327 141.623 139.733C143.938 142.38 146.556 143.846 148.287 144.618C149.693 145.245 151.596 145.626 155.403 146.387C161.702 147.646 163.183 147.406 164.342 146.675C164.535 146.553 165.885 145.677 166.411 144.139C168.087 139.246 160.033 131.75 152.414 128.563Z" fill="#EFC4A3"/>
<path d="M199.296 128.038C199.057 127.72 198.284 126.762 196.969 126.167C194.585 125.089 192.173 126 188.75 127.293C186.276 128.227 186.001 128.755 185.945 129.1C185.79 130.046 187.05 130.982 188.283 131.898C190.124 133.266 190.698 133.007 192.445 134.327C194.035 135.529 193.913 136.012 195.013 136.391C195.117 136.427 197.224 137.117 198.981 135.912C199.719 135.405 200.096 134.77 200.258 134.448C200.784 133.399 200.647 132.438 200.494 131.361C200.356 130.398 200.189 129.224 199.296 128.038Z" fill="#EFD3BF"/>
<path d="M170.803 127.674C170.551 127.433 169.012 126.004 166.613 125.747C163.661 125.431 158.24 127.991 159.455 130.381C162.027 135.438 163.663 136.407 165.752 137.376C168.168 138.496 169.422 138.085 169.745 137.964C171.131 137.446 171.783 136.13 172.177 135.333C173.092 133.485 172.849 131.785 172.777 131.358C172.438 129.348 171.243 128.095 170.803 127.674Z" fill="#EFD3BF"/>
<path d="M149.284 131.213C147.49 129.76 146.584 129.033 146.181 128.98C145.158 128.844 144.831 129.417 141.619 131.079C139.355 132.25 139.045 132.21 138.867 132.668C138.167 134.471 141.904 137.889 145.766 139.001C146.834 139.309 148.264 139.699 149.706 139.023C151.338 138.26 151.869 136.658 151.924 136.481C152.006 136.221 152.344 135.051 151.824 133.779C151.57 133.158 151.221 132.781 149.284 131.213Z" fill="#EFD3BF"/>
<path d="M156.838 118.672C156.813 118.463 156.701 118.553 156.482 118.577L156.479 118.577C156.26 118.601 155.94 118.559 155.965 118.767L156.237 121.051C156.262 121.26 156.609 121.533 156.827 121.509L156.831 121.509C157.05 121.485 157.134 121.164 157.109 120.955L156.838 118.672Z" fill="#DBA16E"/>
<path d="M157.952 112.799L157.949 112.797C157.756 112.695 157.513 112.769 157.409 112.96C157.409 112.96 157.124 113.48 156.884 114.022C156.765 114.293 156.647 114.565 156.57 114.775C156.49 114.983 156.441 115.123 156.441 115.123C156.371 115.332 156.487 115.55 156.699 115.61L156.702 115.611C156.913 115.67 157.14 115.562 157.204 115.369C157.204 115.369 157.249 115.237 157.325 115.042C157.397 114.844 157.509 114.586 157.622 114.328C157.851 113.812 158.124 113.314 158.124 113.314C158.223 113.132 158.145 112.9 157.952 112.799Z" fill="#DBA16E"/>
<path d="M161.627 108.202C161.479 108.045 161.224 108.039 161.06 108.188C161.06 108.188 160.614 108.595 160.21 109.037C160.001 109.252 159.812 109.483 159.662 109.65C159.52 109.823 159.425 109.938 159.425 109.938C159.285 110.106 159.321 110.352 159.498 110.478L159.501 110.48C159.677 110.605 159.926 110.573 160.059 110.413C160.059 110.413 160.15 110.303 160.286 110.137C160.43 109.979 160.61 109.757 160.809 109.551C161.195 109.129 161.618 108.744 161.618 108.744C161.772 108.604 161.777 108.361 161.63 108.204L161.627 108.202Z" fill="#DBA16E"/>
<path d="M166.825 106.02C166.8 105.811 166.693 105.645 166.459 105.683C166.459 105.683 166.407 105.692 166.173 105.733C165.944 105.789 165.616 105.85 165.319 105.952C165.016 106.036 164.711 106.165 164.492 106.247C164.28 106.344 163.876 106.437 163.876 106.437C163.666 106.53 163.382 106.796 163.405 106.99L163.405 106.992C163.865 107.139 164.032 107.214 164.221 107.131C164.221 107.131 164.633 107.04 164.827 106.952C165.026 106.879 165.27 106.764 165.542 106.689C165.81 106.596 166.056 106.548 166.261 106.498C166.469 106.465 166.581 106.446 166.581 106.446C166.779 106.413 166.851 106.234 166.826 106.023L166.825 106.02Z" fill="#DBA16E"/>
<path d="M198.983 134.007C198.453 134.031 196.907 134.102 195.909 135.061C195.532 135.423 195.263 135.888 195.1 136.418C195.521 136.542 197.391 137.002 198.98 135.912C199.718 135.405 200.096 134.77 200.257 134.448C200.313 134.336 200.358 134.226 200.4 134.116C199.977 134.033 199.504 133.983 198.983 134.007Z" fill="#F2E2D7"/>
<path d="M169.012 135.377C167.826 136.033 167.136 136.991 166.742 137.774C168.514 138.378 169.47 138.067 169.745 137.964C171.131 137.446 171.783 136.13 172.177 135.333C172.283 135.12 172.371 134.909 172.448 134.701C171.253 134.584 170.051 134.803 169.012 135.377Z" fill="#F2E2D7"/>
<path d="M159.456 130.381C159.461 130.392 159.467 130.403 159.472 130.414C159.707 130.17 159.955 129.926 160.23 129.686C162.153 128.014 164.1 127.393 165.171 127.052C166.353 126.675 167.575 126.454 168.788 126.345C168.179 126.07 167.45 125.837 166.614 125.748C163.662 125.431 158.24 127.992 159.456 130.381Z" fill="#F2E2D7"/>
<path d="M188.75 127.293C186.276 128.227 186.001 128.755 185.945 129.1C185.877 129.513 186.079 129.923 186.429 130.331C187.24 129.743 188.161 129.161 189.213 128.633C192.127 127.169 195.022 126.599 197.489 126.438C197.325 126.343 197.154 126.251 196.969 126.167C194.585 125.088 192.173 125.999 188.75 127.293Z" fill="#F2E2D7"/>
<path d="M329.408 81.6005L158.801 108.726L170.62 177.236L341.227 150.111L329.408 81.6005Z" fill="#E0F4BD"/>
<path d="M164.188 110.616L174.927 172.878L336.128 147.253L325.39 84.9912L164.188 110.616ZM312.399 146.854L311.932 144.146L196.788 162.45L197.255 165.157L177.986 168.22L168.57 113.628L187.839 110.565L188.305 113.272L303.45 94.9685L302.982 92.2613L322.252 89.1984L331.668 143.791L312.399 146.854Z" fill="#AFBF71"/>
<path d="M164.734 110.992L175.24 171.901L335.502 146.425L324.996 85.5168L164.734 110.992ZM312.006 147.379L311.617 145.123L197.413 163.277L197.802 165.533L177.593 168.746L168.021 113.251L188.23 110.039L188.697 112.746L302.901 94.5917L302.434 91.8845L322.643 88.6718L332.215 144.167L312.006 147.379Z" fill="#85BC35"/>
<path d="M245.196 101.569C231.623 103.727 222.77 117.947 225.423 133.33C228.077 148.713 241.231 159.434 254.805 157.277C268.379 155.119 277.232 140.899 274.578 125.516C271.925 110.133 258.77 99.4119 245.196 101.569Z" fill="#85BC35"/>
<path d="M299.498 114.36C295.268 113.834 291.394 116.699 290.845 120.76C290.297 124.821 293.281 128.539 297.511 129.066C301.741 129.592 305.615 126.727 306.164 122.666C306.712 118.606 303.728 114.887 299.498 114.36Z" fill="#85BC35"/>
<path d="M199.574 130.244C195.746 132.052 194.17 136.495 196.053 140.17C197.935 143.844 202.564 145.357 206.392 143.55C210.219 141.743 211.796 137.299 209.913 133.624C208.03 129.95 203.401 128.437 199.574 130.244Z" fill="#85BC35"/>
<path d="M260.191 130.448C259.179 129.495 257.915 128.817 256.4 128.412C254.885 128.008 253.044 127.738 250.876 127.6C249.259 127.506 247.958 127.38 246.975 127.224C245.991 127.067 245.156 126.748 244.468 126.264C243.781 125.781 243.358 125.076 243.198 124.151C242.997 122.985 243.374 121.925 244.329 120.972C245.284 120.019 246.633 119.404 248.376 119.127C249.644 118.925 250.701 118.956 251.547 119.219C252.393 119.482 253.082 119.877 253.614 120.405C254.146 120.932 254.674 121.61 255.196 122.439C255.629 123.139 256.093 123.645 256.588 123.957C257.083 124.269 257.64 124.376 258.261 124.277C259.027 124.155 259.616 123.811 260.027 123.244C260.438 122.677 260.584 122.051 260.466 121.367C260.263 120.188 259.641 119.039 258.6 117.922C257.559 116.804 256.314 115.976 254.864 115.439C252.822 114.695 250.369 114.551 247.503 115.007C245.112 115.387 243.111 116.096 241.498 117.133C239.886 118.171 238.744 119.434 238.071 120.922C237.398 122.41 237.207 123.996 237.498 125.683C237.741 127.09 238.207 128.237 238.895 129.124C239.585 130.011 240.449 130.698 241.489 131.184C242.53 131.67 243.752 132.029 245.156 132.262C246.56 132.495 248.113 132.665 249.814 132.772C251.176 132.881 252.155 132.973 252.751 133.048C253.348 133.122 253.948 133.261 254.553 133.465C255.158 133.668 255.654 133.947 256.041 134.303C256.428 134.658 256.67 135.115 256.766 135.672C256.922 136.572 256.589 137.417 255.768 138.205C254.947 138.994 253.778 139.509 252.259 139.75C250.621 140.01 249.382 139.905 248.54 139.433C247.699 138.961 246.923 138.24 246.214 137.272C245.677 136.602 245.206 136.133 244.8 135.865C244.395 135.598 243.855 135.517 243.182 135.624C242.442 135.742 241.871 136.109 241.469 136.727C241.067 137.344 240.923 137.989 241.039 138.661C241.166 139.397 241.495 140.12 242.024 140.83C242.554 141.54 243.309 142.179 244.288 142.747C245.269 143.314 246.445 143.706 247.819 143.925C249.193 144.143 250.772 144.109 252.555 143.826C254.787 143.471 256.674 142.842 258.214 141.94C259.755 141.037 260.857 139.92 261.524 138.59C262.19 137.26 262.391 135.828 262.126 134.293C261.849 132.682 261.204 131.4 260.191 130.448Z" fill="#E0F4BD"/>
<path d="M255.057 142.076L249.491 142.961L250.736 150.179L256.302 149.294L255.057 142.076Z" fill="#E0F4BD"/>
<path d="M249.292 108.656L243.727 109.541L244.972 116.759L250.537 115.875L249.292 108.656Z" fill="#E0F4BD"/>
<path d="M219.379 103.832C211.962 101.305 208.254 100.042 207.274 99.8664C199.855 98.5344 199.624 100.882 190.789 99.9816C188.032 99.7008 182.59 98.9155 176.485 96.3451C172.236 94.5566 169.408 92.6366 168.669 92.1581C155.387 83.5574 105.81 79.9454 98.5919 96.1084C97.5654 98.4067 95.1379 104.04 94.9234 108.538C94.6004 115.308 95.7639 119.057 98.6749 123.618C104.767 133.165 122.701 131.86 128.923 131.769C134.201 131.691 139.363 130.811 141.873 130.384C146.45 129.605 149.832 128.682 156.41 126.868C167.397 123.838 169.764 122.693 177.145 121.256C185.183 119.691 187.814 119.992 189.236 120.23C194.611 121.13 195.012 123.198 200.405 123.705C203.79 124.023 203.409 123.187 212.201 122.703C216.163 122.485 217.262 122.599 219.414 121.949C221.403 121.347 224.568 120.391 226.582 117.488C228.411 114.853 229.2 110.745 227.331 107.866C226.294 106.269 224.861 105.699 219.379 103.832Z" fill="#F3C9A7"/>
<path d="M225.487 108.37C224.736 107.593 223.976 107.211 223.025 106.734C222.191 106.315 221.162 105.798 219.66 105.547C219.628 105.542 219.249 105.542 218.747 105.544C217.223 105.552 215.922 106.556 215.742 107.868L214.29 118.428C214.16 119.368 214.807 120.242 215.842 120.519C216.674 120.742 217.657 120.938 218.454 120.903C220.184 120.826 221.438 120.255 221.977 120.003C223.726 119.184 224.682 118.083 225.107 117.583C225.46 117.167 226.423 115.955 226.862 114.172C227.059 113.371 227.333 112.194 226.901 110.763C226.519 109.497 225.776 108.668 225.487 108.37Z" fill="#F2D9C5"/>
<path d="M225.488 108.37C225.057 107.925 224.622 107.61 224.151 107.332C224.765 108.489 225.315 110.04 225.306 111.903C225.295 114.505 224.203 116.387 223.884 116.905C222.786 118.69 221.267 119.904 219.918 120.709C220.89 120.498 221.606 120.176 221.977 120.002C223.726 119.184 224.683 118.082 225.107 117.582C225.46 117.166 226.423 115.955 226.862 114.171C227.06 113.37 227.334 112.193 226.902 110.762C226.52 109.497 225.776 108.668 225.488 108.37Z" fill="#F9EBE1"/>
<path d="M215.663 108.46L214.718 116.89C215.426 116.639 216.186 116.208 216.779 115.456C218.339 113.481 217.375 111.055 217.202 110.619C216.813 109.642 216.203 108.939 215.663 108.46Z" fill="#F9EBE1"/>
<path d="M141.618 131.079C139.354 132.25 139.044 132.21 138.866 132.668C138.665 133.185 138.831 133.835 139.258 134.525C140.759 133.313 142.622 132.046 144.886 130.939C145.795 130.494 146.677 130.122 147.519 129.805C146.843 129.287 146.42 129.011 146.18 128.979C145.157 128.844 144.83 129.417 141.618 131.079Z" fill="#F2E2D7"/>
<path d="M150.543 135.597C149.253 136.05 148.338 137.606 148.498 139.45C148.884 139.387 149.276 139.274 149.67 139.09C151.527 138.221 152.132 136.397 152.195 136.196C152.226 136.098 152.288 135.886 152.337 135.595C151.821 135.447 151.178 135.374 150.543 135.597Z" fill="#F2E2D7"/>
<path d="M107.547 53.0203L0 4.50336V82.5576L76.014 118.973L107.547 53.0203Z" fill="#60B2CC"/>
<path opacity="0.09" d="M43.9434 104.979L52.0734 108.965L86.6919 43.9123L78.4254 40.1035L43.9434 104.979Z" fill="black"/>
<path d="M116.124 49.5686L90.9328 38.5757C88.2908 37.4227 85.1753 38.5445 83.9743 41.0808L51.0973 110.515C49.8963 113.051 51.0648 116.042 53.7068 117.195L60.4673 120.145C73.2883 125.74 88.4068 120.298 94.2348 107.989L118.734 56.2488C119.935 53.7125 118.766 50.7216 116.124 49.5686Z" fill="#72C1D3"/>
<path d="M74.0012 96.865C70.5842 97.5005 68.3507 100.675 69.0127 103.955C69.6747 107.235 72.9812 109.38 76.3982 108.744C79.8152 108.109 82.0487 104.934 81.3867 101.654C80.7252 98.3736 77.4182 96.2295 74.0012 96.865ZM73.9077 101.504C73.8007 100.975 74.1612 100.463 74.7127 100.36C75.2642 100.257 75.7977 100.603 75.9047 101.133C76.0117 101.662 75.6512 102.174 75.0997 102.277C74.5482 102.38 74.0142 102.034 73.9077 101.504ZM75.7532 105.517C75.2017 105.62 74.6682 105.274 74.5612 104.744C74.4542 104.215 74.8147 103.703 75.3662 103.6C75.9177 103.497 76.4512 103.843 76.5577 104.373C76.6652 104.902 76.3047 105.414 75.7532 105.517Z" fill="#C9E6FA"/>
<path d="M181.185 196.124C180.597 196.124 180.151 196.619 180.25 197.16C180.25 197.16 182.936 206.135 182.936 214.74C182.936 223.592 180.242 232.324 180.242 232.324C180.147 232.865 180.595 233.357 181.182 233.355L361.48 232.748C361.48 232.748 357.674 222.86 357.674 214.74C357.674 205.525 361.48 196.124 361.48 196.124H181.185Z" fill="#FFFDF0"/>
<path d="M182.93 216.069C182.823 223.655 180.242 232.794 180.242 232.794C180.148 233.336 180.596 233.552 181.183 233.549L361.481 233.152C361.481 233.152 357.844 222.856 357.681 216.069H182.93Z" fill="#EFEEED"/>
<path d="M182.594 220.461C182.548 220.461 182.498 221.259 182.445 222.058H358.409C358.333 221.259 358.262 220.461 358.195 220.461H182.594Z" fill="#E2DED5"/>
<path d="M357.69 216.069H182.925C182.917 216.069 182.902 216.069 182.884 216.867H357.755C357.725 216.069 357.703 216.069 357.69 216.069Z" fill="#E2DED5"/>
<path d="M182.815 218.065C182.787 218.464 182.753 218.864 182.717 219.263H358.012C357.957 218.863 357.907 218.464 357.864 218.065H182.815Z" fill="#E2DED5"/>
<path d="M180.472 231.64C180.33 232.04 180.242 232.381 180.242 232.381C180.147 232.922 180.595 233.385 181.182 233.383L361.48 232.819C361.48 232.819 361.309 232.439 361.04 231.64H180.472Z" fill="#FFFDF0"/>
<path d="M180.796 230.442C180.671 230.842 180.561 231.241 180.472 231.64H361.04C360.92 231.24 360.782 230.841 360.63 230.442H180.796Z" fill="#E2DED5"/>
<path d="M359.219 225.252H181.867C181.789 225.252 181.71 226.051 181.631 226.849H359.538C359.431 226.05 359.324 225.252 359.219 225.252Z" fill="#E2DED5"/>
<path d="M359.879 228.047H181.373C181.279 228.047 181.186 228.446 181.096 228.846H360.243C360.125 228.446 360.003 228.047 359.879 228.047Z" fill="#E2DED5"/>
<path d="M358.654 222.856H182.275C182.213 222.856 182.149 223.256 182.082 224.054H358.924C358.831 223.256 358.741 222.856 358.654 222.856Z" fill="#E2DED5"/>
<path d="M181.491 202.493H359.511C359.624 201.695 359.737 200.896 359.85 200.497H181.227C181.313 200.896 181.402 201.695 181.491 202.493Z" fill="#E6E3DA"/>
<path d="M181.961 204.49H358.908C359.002 204.09 359.098 203.292 359.196 203.292H181.736C181.812 203.292 181.887 204.091 181.961 204.49Z" fill="#E6E3DA"/>
<path d="M182.165 205.688H358.647C358.731 205.288 358.818 204.889 358.908 204.49H181.961C182.031 204.889 182.099 205.288 182.165 205.688Z" fill="#FFFDF0"/>
<path d="M180.941 199.699H360.213C360.349 198.9 360.481 198.501 360.604 198.501H180.635C180.726 198.501 180.829 198.9 180.941 199.699Z" fill="#E6E3DA"/>
<path d="M182.849 212.076H357.78C357.811 211.677 357.848 210.878 357.89 210.479H182.764C182.797 210.878 182.825 211.677 182.849 212.076Z" fill="#E6E3DA"/>
<path d="M182.933 214.472H357.678C357.681 214.072 357.692 213.274 357.709 213.274H182.908C182.922 213.274 182.93 214.072 182.933 214.472Z" fill="#E6E3DA"/>
<path d="M182.35 207.285H358.413C358.487 206.486 358.566 206.087 358.648 205.688H182.166C182.23 206.087 182.291 206.486 182.35 207.285Z" fill="#E6E3DA"/>
<path d="M182.649 209.68H358.031C358.085 209.281 358.145 208.482 358.208 208.083H182.512C182.561 208.483 182.607 209.281 182.649 209.68Z" fill="#E6E3DA"/>
<path d="M362.078 231.039H179.212C178.229 231.039 177.432 231.804 177.432 232.748C177.432 233.692 178.229 234.458 179.212 234.458H362.079C363.062 234.458 363.859 233.692 363.859 232.748C363.859 231.805 363.062 231.039 362.078 231.039Z" fill="#6BCCD6"/>
<path d="M180.941 199.787H360.213L361.48 196.124L180.081 196.49L180.941 199.787Z" fill="#D8D5CE"/>
<path d="M362.078 194.415H179.212C178.229 194.415 177.432 195.18 177.432 196.124C177.432 197.068 178.229 197.833 179.212 197.833H362.079C363.062 197.833 363.859 197.068 363.859 196.124C363.859 195.18 363.062 194.415 362.078 194.415Z" fill="#70D5E5"/>
<path d="M333.196 246.641C333.811 244.891 335.684 240.497 337.413 236.585C301.565 236.599 165.996 236.663 163.723 236.88C162.61 236.985 161.72 237.471 161.72 237.471C160.923 237.982 160.883 238.627 160.179 238.802C160.025 238.841 159.854 238.851 159.681 238.841C158.295 245.677 157.201 253.817 157.046 263.009C156.892 272.213 158.139 281.085 159.51 288.339C159.791 288.475 160 288.627 160.025 288.646C160.635 289.103 160.567 289.521 161.103 289.977C161.103 289.977 161.708 290.493 162.952 290.569C165.131 290.702 305.701 290.236 336.356 290.133C335.693 288.852 335.042 287.47 334.429 285.984C334.038 285.037 332.448 281.105 331.347 275.63C329.923 268.543 330.153 263.015 330.217 261.727C330.378 258.525 330.944 253.053 333.196 246.641Z" fill="#FFFDF0"/>
<path d="M157.265 271.568C157.297 271.967 157.334 272.366 157.373 272.765H330.854C330.777 272.366 330.708 271.967 330.647 271.568H157.265Z" fill="#F9F3D7"/>
<path d="M331.348 275.952C331.258 275.502 331.174 275.161 331.096 274.762H157.498C157.544 275.161 157.592 275.161 157.643 275.96H331.378C331.368 275.56 331.358 276.002 331.348 275.952Z" fill="#F9F3D7"/>
<path d="M157.11 268.373C157.129 268.773 157.15 269.172 157.176 269.97H330.477C330.424 269.172 330.38 268.773 330.343 268.373H157.11Z" fill="#F9F3D7"/>
<path d="M157.047 262.786C157.042 263.099 157.042 263.183 157.04 263.582H330.165C330.165 263.183 330.176 262.784 330.188 262.385H157.06C157.056 262.384 157.051 262.604 157.047 262.786Z" fill="#F9F3D7"/>
<path d="M157.041 265.578C157.046 265.978 157.053 266.377 157.065 267.175H330.245C330.217 266.377 330.198 265.978 330.185 265.578H157.041Z" fill="#F9F3D7"/>
<path d="M158.614 283.146C158.693 283.546 158.773 283.945 158.854 284.743H333.906C333.75 283.945 333.571 283.545 333.378 283.146H158.614Z" fill="#F9F3D7"/>
<path d="M158.178 280.751C158.246 281.15 158.316 281.549 158.388 281.949H332.896C332.752 281.549 332.605 281.15 332.457 280.751H158.178Z" fill="#F9F3D7"/>
<path d="M157.805 277.157C157.862 277.557 157.921 278.355 157.983 279.154H332.059C331.937 278.355 331.817 277.557 331.699 277.157H157.805Z" fill="#F9F3D7"/>
<path d="M159.109 286.341C159.197 286.74 159.286 286.74 159.376 287.538H335.137C334.919 286.74 334.704 286.74 334.493 286.341H159.109Z" fill="#F9F3D7"/>
<path d="M158.01 249.208H332.384C332.528 248.41 332.683 248.011 332.847 247.611H158.199C158.134 248.01 158.071 248.41 158.01 249.208Z" fill="#F9F3D7"/>
<path d="M158.868 243.219H334.546C334.743 242.421 334.951 242.022 335.169 242.022H159.125C159.038 242.021 158.952 242.421 158.868 243.219Z" fill="#F9F3D7"/>
<path d="M158.405 246.014H333.359C333.513 245.615 333.709 245.216 333.939 244.816H158.629C158.552 245.216 158.477 245.615 158.405 246.014Z" fill="#F9F3D7"/>
<path d="M159.682 239.125C159.586 239.598 159.492 240.025 159.399 240.424H335.801C336.011 240.025 336.225 239.626 336.442 239.226H160.18C160.026 239.226 159.855 239.135 159.682 239.125Z" fill="#F9F3D7"/>
<path d="M157.225 257.992H330.536C330.593 257.194 330.661 257.194 330.737 257.194H157.315C157.282 257.194 157.252 257.194 157.225 257.992Z" fill="#F9F3D7"/>
<path d="M157.099 261.586H330.262C330.291 260.787 330.329 259.989 330.378 259.589H157.153C157.133 259.989 157.115 260.787 157.099 261.586Z" fill="#F9F3D7"/>
<path d="M157.682 252.402H331.594C331.709 251.604 331.834 251.205 331.968 250.805H157.837C157.783 251.205 157.731 251.604 157.682 252.402Z" fill="#F9F3D7"/>
<path d="M157.421 255.197H330.981C331.066 254.798 331.161 254 331.266 253.6H157.543C157.5 254 157.459 254.798 157.421 255.197Z" fill="#F9F3D7"/>
<path d="M161.72 237.467C160.923 237.977 160.883 238.625 160.18 238.8C160.025 238.839 159.854 238.833 159.682 238.823C159.471 239.863 159.268 240.824 159.072 242.022H335.043C335.77 240.425 336.607 238.393 337.414 236.568C301.565 236.582 165.997 236.655 163.723 236.871C162.611 236.977 161.72 237.467 161.72 237.467Z" fill="#E5D7CA"/>
<path opacity="0.1" d="M161.413 238.95C160.616 239.46 160.576 240.106 159.872 240.281C159.717 240.32 159.546 240.331 159.374 240.32C157.988 247.155 156.893 255.296 156.739 264.488C156.655 269.45 156.982 274.313 157.513 278.881C157.938 274.9 159.059 270.852 161.255 267.036C166.235 258.381 176.507 252.245 199.182 247.1C209.038 244.864 217.881 243.338 226.451 242.22C231.395 241.574 244.659 239.946 267.122 239.114C282.85 238.531 286.783 238.943 297.626 238.67C301.561 238.572 306.024 238.392 310.974 238.077C258.602 238.105 165.298 238.18 163.415 238.359C162.303 238.464 161.413 238.95 161.413 238.95Z" fill="black"/>
<path opacity="0.07" d="M161.412 238.95C160.615 239.46 160.575 240.106 159.871 240.281C159.716 240.32 159.545 240.331 159.373 240.32C158.869 242.804 158.405 245.463 158.009 248.28C162.248 242.03 171.673 238.242 180.256 238.241C170.22 238.274 163.89 238.313 163.414 238.358C162.302 238.464 161.412 238.95 161.412 238.95Z" fill="black"/>
<path d="M159.682 238.841C159.276 238.815 158.862 238.657 158.639 238.358C158.176 237.737 158.901 236.996 158.485 236.288C158.157 235.728 157.301 235.548 156.791 235.548C148.163 235.548 151.09 290.593 155.712 289.977C155.997 289.939 156.717 290.426 157.253 290.125C157.916 289.752 158.884 288.186 159.376 287.758C158.842 284.357 158.389 281.842 157.822 277.402C157.29 272.834 156.964 267.971 157.048 263.009C157.202 253.817 158.296 245.677 159.682 238.841Z" fill="#CCB9AC"/>
<path d="M158.023 240.281H157.304C156.88 240.281 156.533 240.614 156.533 241.021C156.533 241.428 156.88 241.761 157.304 241.761H158.023C158.446 241.761 158.793 241.428 158.793 241.021C158.793 240.614 158.446 240.281 158.023 240.281Z" fill="#D39A39"/>
<path d="M157.791 241.761H157.072C156.649 241.761 156.302 242.093 156.302 242.5C156.302 242.907 156.648 243.24 157.072 243.24H157.791C158.215 243.24 158.562 242.907 158.562 242.5C158.562 242.093 158.215 241.761 157.791 241.761Z" fill="#D39A39"/>
<path d="M157.433 243.24H156.714C156.29 243.24 155.943 243.572 155.943 243.979C155.943 244.386 156.29 244.719 156.714 244.719H157.433C157.856 244.719 158.203 244.386 158.203 243.979C158.203 243.572 157.856 243.24 157.433 243.24Z" fill="#D39A39"/>
<path d="M157.099 244.718H156.38C155.956 244.718 155.609 245.051 155.609 245.458C155.609 245.865 155.956 246.198 156.38 246.198H157.099C157.522 246.198 157.869 245.865 157.869 245.458C157.869 245.052 157.523 244.718 157.099 244.718Z" fill="#D39A39"/>
<path d="M156.765 246.198H156.046C155.622 246.198 155.275 246.53 155.275 246.938C155.275 247.344 155.622 247.677 156.046 247.677H156.765C157.188 247.677 157.535 247.345 157.535 246.938C157.535 246.53 157.188 246.198 156.765 246.198Z" fill="#D39A39"/>
<path d="M156.585 247.677H155.866C155.443 247.677 155.096 248.009 155.096 248.416C155.096 248.823 155.442 249.156 155.866 249.156H156.585C157.009 249.156 157.356 248.823 157.356 248.416C157.356 248.009 157.009 247.677 156.585 247.677Z" fill="#D39A39"/>
<path d="M156.367 249.156H155.648C155.225 249.156 154.878 249.488 154.878 249.895C154.878 250.302 155.224 250.635 155.648 250.635H156.367C156.791 250.635 157.138 250.302 157.138 249.895C157.137 249.489 156.791 249.156 156.367 249.156Z" fill="#D39A39"/>
<path d="M156.258 250.635H155.539C155.116 250.635 154.769 250.968 154.769 251.375C154.769 251.781 155.115 252.114 155.539 252.114H156.258C156.682 252.114 157.029 251.782 157.029 251.375C157.029 250.968 156.682 250.635 156.258 250.635Z" fill="#D39A39"/>
<path d="M156.151 252.114H155.432C155.008 252.114 154.661 252.446 154.661 252.853C154.661 253.26 155.008 253.593 155.432 253.593H156.151C156.574 253.593 156.921 253.26 156.921 252.853C156.921 252.446 156.574 252.114 156.151 252.114Z" fill="#D39A39"/>
<path d="M155.994 253.593H155.275C154.852 253.593 154.505 253.925 154.505 254.332C154.505 254.739 154.851 255.072 155.275 255.072H155.994C156.418 255.072 156.765 254.739 156.765 254.332C156.765 253.926 156.418 253.593 155.994 253.593Z" fill="#D39A39"/>
<path d="M155.765 255.072H155.046C154.622 255.072 154.275 255.405 154.275 255.812C154.275 256.218 154.622 256.551 155.046 256.551H155.765C156.188 256.551 156.535 256.219 156.535 255.812C156.535 255.405 156.188 255.072 155.765 255.072Z" fill="#D39A39"/>
<path d="M155.765 256.551H155.046C154.622 256.551 154.275 256.884 154.275 257.291C154.275 257.697 154.622 258.03 155.046 258.03H155.765C156.188 258.03 156.535 257.698 156.535 257.291C156.535 256.884 156.188 256.551 155.765 256.551Z" fill="#D39A39"/>
<path d="M155.647 258.03H154.928C154.504 258.03 154.157 258.362 154.157 258.769C154.157 259.176 154.504 259.509 154.928 259.509H155.647C156.07 259.509 156.417 259.177 156.417 258.769C156.417 258.363 156.07 258.03 155.647 258.03Z" fill="#D39A39"/>
<path d="M155.647 259.509H154.928C154.504 259.509 154.157 259.842 154.157 260.248C154.157 260.655 154.504 260.988 154.928 260.988H155.647C156.07 260.988 156.417 260.655 156.417 260.248C156.417 259.842 156.07 259.509 155.647 259.509Z" fill="#D39A39"/>
<path d="M155.647 260.988H154.928C154.504 260.988 154.157 261.321 154.157 261.728C154.157 262.134 154.504 262.467 154.928 262.467H155.647C156.07 262.467 156.417 262.135 156.417 261.728C156.417 261.321 156.07 260.988 155.647 260.988Z" fill="#D39A39"/>
<path d="M155.647 262.467H154.928C154.504 262.467 154.157 262.8 154.157 263.207C154.157 263.614 154.504 263.947 154.928 263.947H155.647C156.07 263.947 156.417 263.614 156.417 263.207C156.417 262.8 156.07 262.467 155.647 262.467Z" fill="#D39A39"/>
<path d="M155.647 263.946H154.928C154.504 263.946 154.157 264.279 154.157 264.686C154.157 265.093 154.504 265.426 154.928 265.426H155.647C156.07 265.426 156.417 265.093 156.417 264.686C156.417 264.279 156.07 263.946 155.647 263.946Z" fill="#D39A39"/>
<path d="M155.647 265.425H154.928C154.504 265.425 154.157 265.758 154.157 266.165C154.157 266.571 154.504 266.905 154.928 266.905H155.647C156.07 266.905 156.417 266.572 156.417 266.165C156.417 265.758 156.07 265.425 155.647 265.425Z" fill="#D39A39"/>
<path d="M155.763 266.904H155.044C154.62 266.904 154.273 267.237 154.273 267.644C154.273 268.05 154.62 268.383 155.044 268.383H155.763C156.186 268.383 156.533 268.051 156.533 267.644C156.533 267.237 156.187 266.904 155.763 266.904Z" fill="#D39A39"/>
<path d="M155.763 268.383H155.044C154.62 268.383 154.273 268.716 154.273 269.123C154.273 269.53 154.62 269.863 155.044 269.863H155.763C156.186 269.863 156.533 269.53 156.533 269.123C156.533 268.716 156.187 268.383 155.763 268.383Z" fill="#D39A39"/>
<path d="M155.876 269.862H155.157C154.734 269.862 154.387 270.195 154.387 270.602C154.387 271.009 154.733 271.342 155.157 271.342H155.876C156.3 271.342 156.647 271.009 156.647 270.602C156.647 270.195 156.3 269.862 155.876 269.862Z" fill="#D39A39"/>
<path d="M156.041 271.342H155.322C154.899 271.342 154.552 271.674 154.552 272.081C154.552 272.488 154.898 272.82 155.322 272.82H156.041C156.465 272.82 156.812 272.488 156.812 272.081C156.812 271.674 156.465 271.342 156.041 271.342Z" fill="#D39A39"/>
<path d="M156.2 272.82H155.481C155.057 272.82 154.711 273.153 154.711 273.56C154.711 273.967 155.057 274.3 155.481 274.3H156.2C156.623 274.3 156.97 273.967 156.97 273.56C156.97 273.153 156.623 272.82 156.2 272.82Z" fill="#D39A39"/>
<path d="M156.328 274.299H155.609C155.186 274.299 154.839 274.632 154.839 275.039C154.839 275.446 155.185 275.779 155.609 275.779H156.328C156.752 275.779 157.099 275.446 157.099 275.039C157.098 274.633 156.752 274.299 156.328 274.299Z" fill="#D39A39"/>
<path d="M156.508 275.779H155.789C155.366 275.779 155.019 276.111 155.019 276.518C155.019 276.925 155.365 277.258 155.789 277.258H156.508C156.932 277.258 157.279 276.925 157.279 276.518C157.279 276.111 156.932 275.779 156.508 275.779Z" fill="#D39A39"/>
<path d="M156.661 277.258H155.942C155.519 277.258 155.172 277.59 155.172 277.997C155.172 278.404 155.518 278.737 155.942 278.737H156.661C157.085 278.737 157.432 278.404 157.432 277.997C157.432 277.59 157.085 277.258 156.661 277.258Z" fill="#D39A39"/>
<path d="M156.867 278.737H156.148C155.725 278.737 155.378 279.069 155.378 279.476C155.378 279.883 155.724 280.216 156.148 280.216H156.867C157.291 280.216 157.638 279.883 157.638 279.476C157.638 279.069 157.291 278.737 156.867 278.737Z" fill="#D39A39"/>
<path d="M156.867 280.216H156.148C155.725 280.216 155.378 280.548 155.378 280.956C155.378 281.362 155.724 281.695 156.148 281.695H156.867C157.291 281.695 157.638 281.363 157.638 280.956C157.638 280.548 157.291 280.216 156.867 280.216Z" fill="#D39A39"/>
<path d="M157.175 281.695H156.456C156.033 281.695 155.686 282.027 155.686 282.434C155.686 282.841 156.032 283.174 156.456 283.174H157.175C157.599 283.174 157.946 282.841 157.946 282.434C157.946 282.027 157.599 281.695 157.175 281.695Z" fill="#D39A39"/>
<path d="M157.638 283.174H156.919C156.495 283.174 156.148 283.506 156.148 283.913C156.148 284.32 156.495 284.653 156.919 284.653H157.638C158.061 284.653 158.408 284.32 158.408 283.913C158.408 283.507 158.061 283.174 157.638 283.174Z" fill="#D39A39"/>
<path d="M157.997 284.653H157.278C156.855 284.653 156.508 284.986 156.508 285.393C156.508 285.799 156.854 286.132 157.278 286.132H157.997C158.421 286.132 158.768 285.8 158.768 285.393C158.767 284.986 158.421 284.653 157.997 284.653Z" fill="#D39A39"/>
<path d="M339.757 234.809C274.473 234.834 165.71 234.907 163.541 235.114C162.08 235.253 160.933 235.86 160.807 235.928L160.694 235.994C160.59 236.062 160.493 236.129 160.403 236.198C160.348 235.947 160.252 235.684 160.095 235.417C159.384 234.205 157.921 233.774 156.79 233.774C155.617 233.774 153.937 234.296 152.597 236.781C149.118 243.232 149.335 260.184 149.484 265.226C149.769 274.843 150.953 287.229 153.354 290.488C154.052 291.436 154.849 291.707 155.446 291.751C155.517 291.756 155.586 291.768 155.654 291.789C156.173 291.954 157.186 292.219 158.186 291.657C158.38 291.547 158.547 291.424 158.69 291.293C159.013 290.997 159.504 290.979 159.834 291.268C159.848 291.28 159.862 291.292 159.876 291.305C160.057 291.458 161.047 292.231 162.834 292.34C163.124 292.358 165.661 292.366 169.959 292.366C196.834 292.366 292.534 292.055 337.914 291.902C338.376 291.901 338.747 291.54 338.746 291.096L338.738 289.153C338.737 288.709 338.361 288.351 337.899 288.353C296.443 288.492 165.839 288.921 163.07 288.797C162.658 288.772 162.409 288.671 162.307 288.619C162.287 288.586 162.256 288.533 162.232 288.492C162.064 288.2 161.783 287.712 161.164 287.247C160.224 286.542 158.769 286.006 157.502 286.615C157.299 286.713 157.125 286.827 156.975 286.952C156.502 287.344 155.768 287.156 155.602 286.578C154.646 283.252 153.563 276 153.213 266.124C152.764 253.476 153.713 243.004 155.689 238.794C155.693 238.785 155.697 238.776 155.701 238.767C155.924 238.297 156.618 238.338 156.812 238.82C156.888 239.009 156.993 239.201 157.135 239.391C157.876 240.386 159.32 240.85 160.643 240.52C161.647 240.27 162.143 239.643 162.44 239.268C162.476 239.222 162.507 239.184 162.534 239.151C162.621 239.045 162.732 238.965 162.861 238.912C163.096 238.816 163.475 238.686 163.88 238.647C166.042 238.508 231.767 238.4 339.751 238.358C340.213 238.358 340.592 237.996 340.592 237.552L340.591 235.611C340.592 235.169 340.22 234.809 339.757 234.809Z" fill="#F8BF33"/>
<path d="M362.304 292.711H247.751C242.85 292.711 242.85 336.638 247.751 336.638H363.076C366.856 336.638 370.234 334.891 371.462 332.279C377.196 320.083 377.457 307.008 370.285 296.356C368.786 294.13 365.699 292.711 362.304 292.711Z" fill="#366DB0"/>
<path d="M244.078 314.29C244.027 325.07 245.251 336.25 247.751 336.25H310.451C312.38 330.66 314.077 323.074 313.896 314.29H244.078Z" fill="#1D5FA0"/>
<path d="M247.505 294.024C245.707 294.024 244.248 303.017 244.248 314.111C244.248 325.204 245.706 334.197 247.505 334.197C249.304 334.197 250.762 325.204 250.762 314.111C250.762 303.017 249.304 294.024 247.505 294.024Z" fill="#9BA0A3"/>
<path d="M245.879 296.59C245.763 296.598 245.648 296.59 245.544 296.561C245.071 296.43 245.044 295.95 244.509 295.571C244.509 295.571 243.91 295.209 243.163 295.13C241.635 294.97 150.513 294.922 126.418 294.911C127.58 297.822 128.839 301.09 129.252 302.391C130.766 307.16 131.146 311.231 131.254 313.613C131.298 314.57 131.452 318.682 130.495 323.954C129.755 328.027 128.686 330.951 128.424 331.655C128.012 332.761 127.574 333.789 127.128 334.742C147.733 334.818 242.216 335.165 243.68 335.066C244.516 335.009 244.923 334.626 244.923 334.626C245.283 334.286 245.238 333.976 245.648 333.635C245.664 333.622 245.805 333.508 245.994 333.407C246.915 328.011 247.754 321.412 247.65 314.566C247.546 307.729 246.811 301.674 245.879 296.59Z" fill="#FFFDF0"/>
<path d="M130.811 322.275H247.424C247.453 321.476 247.479 321.077 247.503 321.077H130.962C130.918 321.077 130.868 321.477 130.811 322.275Z" fill="#E6E3DA"/>
<path d="M130.495 323.856C130.47 323.995 130.444 324.271 130.418 324.271H247.223C247.261 323.872 247.296 323.472 247.33 323.074H130.629C130.587 323.074 130.543 323.595 130.495 323.856Z" fill="#E6E3DA"/>
<path d="M131.246 317.085H247.644C247.651 316.685 247.655 316.685 247.657 316.286H131.283C131.277 316.685 131.265 316.685 131.246 317.085Z" fill="#E6E3DA"/>
<path d="M131.085 319.879H247.566C247.584 319.08 247.6 318.682 247.613 318.682H131.18C131.154 318.682 131.123 319.081 131.085 319.879Z" fill="#E6E3DA"/>
<path d="M129.908 326.667H246.969C247.015 325.868 247.06 325.868 247.102 325.469H130.179C130.09 325.869 130 325.869 129.908 326.667Z" fill="#E6E3DA"/>
<path d="M128.496 331.458H246.314C246.375 330.66 246.436 330.659 246.495 330.26H128.905C128.734 330.659 128.592 331.059 128.496 331.458Z" fill="#E6E3DA"/>
<path d="M129.273 329.063H246.665C246.719 328.264 246.771 328.264 246.823 327.865H129.607C129.493 328.264 129.381 328.264 129.273 329.063Z" fill="#E6E3DA"/>
<path d="M127.303 297.121C127.46 297.52 127.613 297.92 127.762 298.718H246.184C246.117 297.919 246.049 297.52 245.98 297.121H127.303Z" fill="#E6E3DA"/>
<path d="M129.082 301.912C129.148 301.912 129.207 302.285 129.253 302.431C129.324 302.657 129.391 303.11 129.458 303.11H246.865C246.816 302.711 246.766 302.311 246.714 301.912H129.082V301.912Z" fill="#E6E3DA"/>
<path d="M129.796 304.307C129.904 304.707 130.002 304.707 130.095 305.505H247.126C247.087 304.706 247.045 304.706 247.002 304.307H129.796Z" fill="#E6E3DA"/>
<path d="M128.215 299.517C128.374 299.916 128.523 300.315 128.658 301.114H246.551C246.494 300.315 246.435 299.916 246.375 299.517H128.215Z" fill="#E6E3DA"/>
<path d="M247.633 313.89H131.259C131.27 313.89 131.284 314.689 131.289 315.088H247.653C247.651 314.688 247.652 314.861 247.65 314.751C247.646 314.465 247.639 313.89 247.633 313.89Z" fill="#E6E3DA"/>
<path d="M131.091 311.095C131.132 311.495 131.165 311.894 131.191 312.293H247.599C247.585 311.893 247.57 311.494 247.552 311.095H131.091Z" fill="#E6E3DA"/>
<path d="M130.363 306.304C130.448 306.703 130.524 307.103 130.594 307.502H247.336C247.305 307.103 247.272 306.703 247.238 306.304H130.363Z" fill="#E6E3DA"/>
<path d="M130.793 309.099C130.856 309.498 130.91 309.898 130.958 310.296H247.493C247.471 309.897 247.447 309.498 247.42 309.099H130.793Z" fill="#E6E3DA"/>
<path d="M128.443 300.136H246.487V296.287H126.964L128.443 300.136Z" fill="#D3D1CF"/>
<path opacity="0.1" d="M245.316 298.04C244.838 297.91 244.811 297.429 244.27 297.05C244.27 297.05 243.665 296.688 242.91 296.61C241.632 296.476 178.299 296.421 142.749 296.4C146.11 296.634 149.139 296.768 151.81 296.841C159.169 297.044 161.84 296.737 172.515 297.171C187.763 297.791 196.766 299.002 200.122 299.482C205.939 300.314 211.942 301.448 218.632 303.112C234.023 306.939 240.996 311.503 244.376 317.94C245.866 320.778 246.628 323.79 246.916 326.751C247.277 323.353 247.498 319.736 247.442 316.045C247.337 309.208 246.594 303.153 245.653 298.068C245.537 298.077 245.42 298.069 245.316 298.04Z" fill="black"/>
<path opacity="0.07" d="M245.871 298.336C245.191 298.193 245.153 297.665 244.383 297.248C244.383 297.248 243.524 296.85 242.45 296.764C241.99 296.727 235.878 296.695 226.189 296.668C234.476 296.669 243.575 299.766 247.668 304.878C247.286 302.574 247.126 299.919 246.639 297.888C246.473 297.896 246.02 298.368 245.871 298.336Z" fill="black"/>
<path d="M246.186 297.661H245.284C244.969 297.661 244.711 297.909 244.711 298.212C244.711 298.514 244.969 298.762 245.284 298.762H246.186C246.501 298.762 246.759 298.514 246.759 298.212C246.759 297.909 246.502 297.661 246.186 297.661Z" fill="#356B9D"/>
<path d="M246.396 298.762H245.494C245.179 298.762 244.921 299.009 244.921 299.312C244.921 299.614 245.179 299.862 245.494 299.862H246.396C246.711 299.862 246.969 299.614 246.969 299.312C246.969 299.009 246.711 298.762 246.396 298.762Z" fill="#356B9D"/>
<path d="M246.721 299.861H245.818C245.503 299.861 245.245 300.109 245.245 300.411C245.245 300.714 245.503 300.961 245.818 300.961H246.721C247.036 300.961 247.294 300.714 247.294 300.411C247.294 300.109 247.036 299.861 246.721 299.861Z" fill="#356B9D"/>
<path d="M247.024 300.961H246.122C245.807 300.961 245.549 301.209 245.549 301.512C245.549 301.814 245.807 302.062 246.122 302.062H247.024C247.339 302.062 247.597 301.814 247.597 301.512C247.597 301.209 247.339 300.961 247.024 300.961Z" fill="#356B9D"/>
<path d="M247.327 302.062H246.425C246.11 302.062 245.852 302.309 245.852 302.612C245.852 302.914 246.11 303.162 246.425 303.162H247.327C247.642 303.162 247.9 302.914 247.9 302.612C247.9 302.309 247.642 302.062 247.327 302.062Z" fill="#356B9D"/>
<path d="M247.49 303.162H246.588C246.273 303.162 246.015 303.41 246.015 303.712C246.015 304.015 246.273 304.262 246.588 304.262H247.49C247.805 304.262 248.063 304.015 248.063 303.712C248.063 303.409 247.805 303.162 247.49 303.162Z" fill="#356B9D"/>
<path d="M247.687 304.262H246.785C246.47 304.262 246.212 304.51 246.212 304.812C246.212 305.115 246.47 305.363 246.785 305.363H247.687C248.002 305.363 248.26 305.115 248.26 304.812C248.26 304.51 248.003 304.262 247.687 304.262Z" fill="#356B9D"/>
<path d="M247.786 305.363H246.884C246.569 305.363 246.311 305.61 246.311 305.913C246.311 306.215 246.569 306.463 246.884 306.463H247.786C248.101 306.463 248.359 306.215 248.359 305.913C248.359 305.61 248.101 305.363 247.786 305.363Z" fill="#356B9D"/>
<path d="M247.884 306.462H246.981C246.666 306.462 246.408 306.71 246.408 307.012C246.408 307.315 246.666 307.562 246.981 307.562H247.884C248.199 307.562 248.457 307.315 248.457 307.012C248.457 306.71 248.199 306.462 247.884 306.462Z" fill="#356B9D"/>
<path d="M248.025 307.562H247.123C246.808 307.562 246.55 307.81 246.55 308.112C246.55 308.415 246.808 308.663 247.123 308.663H248.025C248.34 308.663 248.598 308.415 248.598 308.112C248.598 307.81 248.34 307.562 248.025 307.562Z" fill="#356B9D"/>
<path d="M248.234 308.663H247.332C247.017 308.663 246.759 308.91 246.759 309.213C246.759 309.515 247.017 309.763 247.332 309.763H248.234C248.549 309.763 248.807 309.515 248.807 309.213C248.807 308.91 248.549 308.663 248.234 308.663Z" fill="#356B9D"/>
<path d="M248.234 309.763H247.332C247.017 309.763 246.759 310.01 246.759 310.313C246.759 310.615 247.017 310.863 247.332 310.863H248.234C248.549 310.863 248.807 310.615 248.807 310.313C248.807 310.01 248.549 309.763 248.234 309.763Z" fill="#356B9D"/>
<path d="M248.341 310.863H247.438C247.123 310.863 246.865 311.111 246.865 311.413C246.865 311.715 247.123 311.963 247.438 311.963H248.341C248.656 311.963 248.914 311.715 248.914 311.413C248.914 311.111 248.656 310.863 248.341 310.863Z" fill="#356B9D"/>
<path d="M248.341 311.963H247.438C247.123 311.963 246.865 312.211 246.865 312.513C246.865 312.815 247.123 313.063 247.438 313.063H248.341C248.656 313.063 248.914 312.815 248.914 312.513C248.914 312.211 248.656 311.963 248.341 311.963Z" fill="#356B9D"/>
<path d="M248.341 313.063H247.438C247.123 313.063 246.865 313.311 246.865 313.613C246.865 313.916 247.123 314.163 247.438 314.163H248.341C248.656 314.163 248.914 313.916 248.914 313.613C248.914 313.311 248.656 313.063 248.341 313.063Z" fill="#356B9D"/>
<path d="M248.341 314.163H247.438C247.123 314.163 246.865 314.411 246.865 314.713C246.865 315.016 247.123 315.264 247.438 315.264H248.341C248.656 315.264 248.914 315.016 248.914 314.713C248.914 314.411 248.656 314.163 248.341 314.163Z" fill="#356B9D"/>
<path d="M248.341 315.264H247.438C247.123 315.264 246.865 315.511 246.865 315.814C246.865 316.116 247.123 316.364 247.438 316.364H248.341C248.656 316.364 248.914 316.116 248.914 315.814C248.914 315.511 248.656 315.264 248.341 315.264Z" fill="#356B9D"/>
<path d="M248.341 316.364H247.438C247.123 316.364 246.865 316.611 246.865 316.914C246.865 317.216 247.123 317.464 247.438 317.464H248.341C248.656 317.464 248.914 317.216 248.914 316.914C248.914 316.611 248.656 316.364 248.341 316.364Z" fill="#356B9D"/>
<path d="M248.236 317.464H247.334C247.019 317.464 246.761 317.712 246.761 318.014C246.761 318.316 247.019 318.564 247.334 318.564H248.236C248.551 318.564 248.809 318.316 248.809 318.014C248.809 317.712 248.551 317.464 248.236 317.464Z" fill="#356B9D"/>
<path d="M248.236 318.564H247.334C247.019 318.564 246.761 318.812 246.761 319.114C246.761 319.417 247.019 319.664 247.334 319.664H248.236C248.551 319.664 248.809 319.417 248.809 319.114C248.809 318.812 248.551 318.564 248.236 318.564Z" fill="#356B9D"/>
<path d="M248.133 319.664H247.23C246.915 319.664 246.657 319.912 246.657 320.214C246.657 320.517 246.915 320.764 247.23 320.764H248.133C248.448 320.764 248.706 320.517 248.706 320.214C248.706 319.912 248.448 319.664 248.133 319.664Z" fill="#356B9D"/>
<path d="M247.982 320.764H247.08C246.765 320.764 246.507 321.012 246.507 321.314C246.507 321.617 246.765 321.864 247.08 321.864H247.982C248.297 321.864 248.555 321.617 248.555 321.314C248.555 321.012 248.297 320.764 247.982 320.764Z" fill="#356B9D"/>
<path d="M247.84 321.865H246.937C246.622 321.865 246.364 322.112 246.364 322.415C246.364 322.717 246.622 322.965 246.937 322.965H247.84C248.155 322.965 248.413 322.717 248.413 322.415C248.413 322.112 248.155 321.865 247.84 321.865Z" fill="#356B9D"/>
<path d="M247.723 322.965H246.82C246.505 322.965 246.247 323.212 246.247 323.515C246.247 323.817 246.505 324.065 246.82 324.065H247.723C248.038 324.065 248.296 323.817 248.296 323.515C248.296 323.212 248.038 322.965 247.723 322.965Z" fill="#356B9D"/>
<path d="M247.559 324.065H246.657C246.342 324.065 246.084 324.312 246.084 324.615C246.084 324.917 246.342 325.165 246.657 325.165H247.559C247.874 325.165 248.132 324.917 248.132 324.615C248.132 324.312 247.874 324.065 247.559 324.065Z" fill="#356B9D"/>
<path d="M247.421 325.165H246.518C246.203 325.165 245.945 325.413 245.945 325.715C245.945 326.017 246.203 326.265 246.518 326.265H247.421C247.736 326.265 247.994 326.017 247.994 325.715C247.994 325.413 247.736 325.165 247.421 325.165Z" fill="#356B9D"/>
<path d="M247.234 326.265H246.332C246.017 326.265 245.759 326.513 245.759 326.815C245.759 327.118 246.017 327.365 246.332 327.365H247.234C247.549 327.365 247.807 327.118 247.807 326.815C247.807 326.513 247.55 326.265 247.234 326.265Z" fill="#356B9D"/>
<path d="M247.234 327.365H246.332C246.017 327.365 245.759 327.613 245.759 327.915C245.759 328.218 246.017 328.465 246.332 328.465H247.234C247.549 328.465 247.807 328.218 247.807 327.915C247.807 327.613 247.55 327.365 247.234 327.365Z" fill="#356B9D"/>
<path d="M246.955 328.465H246.052C245.737 328.465 245.479 328.713 245.479 329.016C245.479 329.318 245.737 329.566 246.052 329.566H246.955C247.27 329.566 247.528 329.318 247.528 329.016C247.528 328.713 247.27 328.465 246.955 328.465Z" fill="#356B9D"/>
<path d="M246.536 329.566H245.634C245.319 329.566 245.061 329.813 245.061 330.116C245.061 330.418 245.319 330.666 245.634 330.666H246.536C246.851 330.666 247.109 330.418 247.109 330.116C247.109 329.813 246.851 329.566 246.536 329.566Z" fill="#356B9D"/>
<path d="M246.21 330.666H245.307C244.992 330.666 244.734 330.913 244.734 331.216C244.734 331.518 244.992 331.766 245.307 331.766H246.21C246.525 331.766 246.783 331.518 246.783 331.216C246.783 330.913 246.525 330.666 246.21 330.666Z" fill="#356B9D"/>
<path d="M247.823 292.366C247.034 292.366 245.973 292.663 245.315 293.467C245.146 293.674 244.848 293.743 244.591 293.652C244.248 293.529 243.829 293.416 243.365 293.367C241.949 293.218 178.323 293.159 124.911 293.136C124.563 293.136 124.282 293.407 124.282 293.741L124.281 296.081C124.281 296.415 124.565 296.686 124.913 296.686C196.467 296.716 240.439 296.795 242.946 296.896C242.974 296.898 243 296.9 243.028 296.904C243.18 296.93 243.331 296.986 243.428 297.027C243.448 297.054 243.471 297.086 243.49 297.114C243.701 297.408 244.139 298.02 245.034 298.267C246.195 298.586 247.498 298.137 248.133 297.195C248.148 297.173 248.162 297.151 248.176 297.129C248.986 299.5 249.804 304.99 249.68 314.266C249.567 322.763 248.758 329.237 248.041 331.987C247.935 331.903 247.817 331.824 247.684 331.753C246.521 331.134 245.246 331.625 244.439 332.293C243.996 332.661 243.77 333.044 243.641 333.286C243.621 333.289 243.6 333.292 243.576 333.294C241.815 333.365 181.89 333.171 126.161 332.963C125.813 332.962 125.531 333.231 125.53 333.565L125.52 335.905C125.519 336.24 125.797 336.511 126.145 336.512C156.58 336.626 220.522 336.855 238.833 336.855C241.832 336.855 243.608 336.849 243.812 336.835C244.739 336.772 245.4 336.468 245.802 336.211C246.015 336.074 246.288 336.087 246.503 336.221C246.504 336.222 246.505 336.223 246.507 336.224C247.398 336.779 248.308 336.561 248.755 336.412C248.795 336.399 248.834 336.391 248.877 336.385C249.37 336.326 250.014 336.089 250.56 335.363C252.851 332.316 253.298 317.821 253.341 316.178C253.472 311.227 253.515 299.219 251.085 294.659C250.073 292.764 248.753 292.366 247.823 292.366Z" fill="#4184D6"/>
<path d="M316.614 336.25H363.076C366.856 336.25 370.234 334.837 371.462 332.224C374.287 326.216 375.78 320.279 375.714 314.29H320.059C320.24 323.074 318.544 330.66 316.614 336.25Z" fill="#1D5FA0"/>
<path d="M319.972 311.508C319.55 303.995 317.922 297.52 316.179 292.729H310.017C311.759 297.52 313.388 304.091 313.81 311.605C313.856 312.421 313.881 313.043 313.896 313.93C314.077 322.804 312.381 330.66 310.452 336.25H316.614C318.543 330.66 320.24 322.837 320.059 313.963C320.043 313.075 320.018 312.324 319.972 311.508Z" fill="#E8BD5D"/>
<path d="M316.179 292.729H310.017C311.759 297.52 313.388 304.158 313.81 311.672C313.856 312.488 313.881 313.092 313.896 314.29H320.059C320.043 313.092 320.018 312.488 319.972 311.672C319.551 304.158 317.922 297.52 316.179 292.729Z" fill="#F2CF6D"/>
<path d="M426.837 375.764C423.976 373.767 424.647 375.188 397.958 369.025C397.958 369.025 366.16 361.381 356.234 353.905C354.223 352.391 350.284 349.13 343.897 345.051C338.351 341.51 332.829 339.009 330.646 338.341C326.585 337.101 321.423 336.748 313.552 336.512C305.454 336.269 296.665 337.696 295.855 337.983C282.934 342.562 286.701 345.231 275.686 348.68C269.323 350.672 267.054 349.304 262.312 348.928C253.675 348.243 253.802 347.735 246.832 347.701C237.953 347.659 236.625 349.376 228.317 348.343C224.196 347.831 223.144 347.579 218.333 347.427C213.813 347.284 212.687 347.359 207.83 347.51C203.184 347.654 199.808 347.086 195.35 346.335C188.339 345.154 183 343.431 180.915 342.726C170.18 339.094 168.233 337.165 163.346 337.334C157.174 337.549 158.798 337.832 155.099 339.529C151.581 341.142 148.502 339.739 145.447 340.675C144.386 341.001 140.019 342.339 138.34 346.314C138.072 346.948 136.853 349.836 138.233 352.073C139.333 353.857 141.373 354.072 147.177 355.107C147.177 355.107 155.126 356.526 162.121 358.245C167.782 359.637 169.322 360.388 170.075 360.782C174.278 362.98 173.829 364.401 177.475 366.191C178.941 366.911 179.002 366.675 188.929 368.788C193.263 369.711 193.922 369.899 194.901 370.331C197.46 371.462 197.923 372.376 201.819 374.771C203.971 376.094 205.661 376.942 207.264 377.745C209.304 378.768 211.915 379.976 215.2 381.242C221.062 383.502 222.279 383.329 228.126 385.306C234.921 387.601 240.689 389.55 246.489 392.823C247.565 393.43 249.746 394.706 252.943 395.334C256.294 395.993 258.98 395.591 259.942 395.455C268.504 394.243 289.44 393.027 302.489 393.307C311.397 393.497 318.308 394.42 323.458 395.108C331.901 396.235 336.438 396.864 342.392 398.794C344.299 399.412 350.303 401.444 360.237 407.263C370.489 413.267 377.42 418.906 379.492 420.556C389.062 428.176 426.045 444.881 429.563 443.982C446.45 439.663 447.224 389.991 426.837 375.764Z" fill="#F3C9A7"/>
<path d="M380.105 405.685C365.675 398.173 363.84 397.342 359.978 394.456C354.844 390.622 353.681 388.799 349.117 386.908C345.655 385.475 343.355 385.293 333.84 383.765C324.088 382.199 323.896 381.971 321.211 381.627C307.11 379.821 305.041 385.166 289.139 385.236C275.569 385.296 271.175 381.43 260.84 383.149C259.531 383.366 256.153 384.001 251.835 383.314C247.152 382.568 244.178 380.713 241.575 379.296C228.844 372.365 225.332 376.069 214.759 369.233C210.274 366.334 209.626 364.84 205.207 362.988C202.518 361.861 201.669 361.958 192.602 359.57C184.608 357.466 183.719 356.982 182.991 356.524C178.735 353.848 178.743 351.252 175.112 349.988C171.851 348.852 170.943 350.63 166.435 350.478C157.856 350.189 152.327 343.453 149.86 345.392C148.828 346.204 149.512 347.607 148.134 348.563C146.586 349.637 144.545 348.683 142.469 348.466C141.203 348.333 139.584 348.443 137.605 349.222C137.546 350.15 137.674 351.165 138.234 352.073C139.334 353.857 141.374 354.072 147.179 355.107C147.179 355.107 155.127 356.526 162.123 358.245C167.784 359.637 169.323 360.388 170.077 360.782C174.279 362.98 173.831 364.401 177.477 366.191C178.943 366.91 179.003 366.675 188.93 368.788C193.265 369.711 193.924 369.899 194.902 370.331C197.462 371.462 197.925 372.376 201.82 374.771C203.972 376.094 205.663 376.942 207.266 377.745C209.305 378.768 211.917 379.976 215.202 381.242C221.063 383.502 222.28 383.329 228.128 385.306C234.923 387.601 240.69 389.55 246.49 392.823C247.566 393.43 249.748 394.706 252.944 395.334C256.295 395.993 258.981 395.591 259.943 395.455C268.505 394.243 289.442 393.027 302.49 393.307C311.399 393.497 318.31 394.42 323.46 395.108C331.903 396.235 336.439 396.864 342.394 398.794C344.3 399.412 350.304 401.444 360.239 407.263C370.49 413.267 377.421 418.906 379.494 420.556C389.064 428.176 426.047 444.881 429.564 443.982C434.695 442.669 438.335 437.167 440.349 429.747C426.823 426.333 407.925 419.835 401.565 416.935C398.744 415.65 401.082 416.605 380.105 405.685Z" fill="#E5B798"/>
<path d="M330.646 338.341C326.585 337.101 321.423 336.748 313.552 336.512C305.454 336.269 296.665 337.696 295.855 337.983C282.934 342.562 286.701 345.231 275.686 348.68C269.323 350.672 267.054 349.304 262.312 348.928C253.676 348.243 253.802 347.735 246.832 347.701C238.78 347.663 236.938 349.071 230.47 348.564C229.482 349.012 228.471 349.56 227.449 350.248C225.042 351.869 224.198 353.109 224.378 354.036C225.096 357.748 243.66 357.451 257.658 357.169C277.752 356.765 276.761 355.439 292.361 355.526C303.284 355.588 309.312 355.521 321.368 355.386C333.345 355.252 339.164 355.63 341.443 351.571C343.559 347.803 342.47 345.037 340.263 342.868C336.076 340.498 332.347 338.861 330.646 338.341Z" fill="#F3C9A7"/>
<path d="M426.837 375.764C423.975 373.767 424.646 375.188 397.958 369.025C397.958 369.025 388.959 366.862 379.042 363.712C376.928 363.611 374.739 363.663 372.549 363.947C369.349 364.361 364.152 367.139 362.395 372.094C360.985 376.068 362.656 379.831 363.228 381.07C366.594 388.362 379.899 394.496 382.95 396.132C399.279 404.887 411.368 409.841 441.874 421.199C443.493 404.749 438.825 384.13 426.837 375.764Z" fill="#F3C9A7"/>
<path d="M261.683 389.499C260.157 389.738 258.268 389.887 256.132 389.676C255.074 389.566 253.925 389.374 252.812 389.019C251.702 388.612 250.537 388.086 249.327 387.56C246.91 386.483 244.292 385.317 241.522 384.084C240.138 383.463 238.717 382.826 237.263 382.175C235.802 381.512 234.265 380.94 232.705 380.364C229.577 379.218 226.276 378.228 222.914 377.282C221.23 376.81 219.519 376.367 217.796 375.957C216.939 375.753 216.081 375.548 215.222 375.343C214.374 375.13 213.56 374.886 212.818 374.523C212.441 374.342 212.093 374.133 211.746 373.902C211.378 373.65 211.054 373.416 210.712 373.143C210.041 372.611 209.373 372.036 208.658 371.503C207.224 370.433 205.649 369.559 204.001 368.897C202.354 368.241 200.701 367.728 199.042 367.251C197.391 366.766 195.692 366.435 194.087 366.098C192.488 365.751 190.922 365.273 189.383 364.859C187.851 364.427 186.367 363.976 184.992 363.401C183.621 362.819 182.374 362.097 181.302 361.213C180.22 360.358 179.334 359.317 178.27 358.484C177.74 358.068 177.185 357.711 176.608 357.406C176.051 357.111 175.459 356.846 174.881 356.646C173.717 356.231 172.559 356.037 171.498 355.853C169.374 355.481 167.543 355.045 166.046 354.65C164.55 354.251 163.383 353.905 162.592 353.657C161.801 353.405 161.38 353.27 161.38 353.27C161.38 353.27 161.795 353.422 162.574 353.706C163.356 353.982 164.503 354.389 165.992 354.828C167.479 355.27 169.302 355.763 171.425 356.201C172.486 356.418 173.604 356.642 174.709 357.075C175.814 357.506 176.927 358.089 177.91 358.897C178.902 359.7 179.767 360.757 180.886 361.681C181.976 362.617 183.283 363.408 184.692 364.036C186.107 364.659 187.611 365.145 189.145 365.608C190.681 366.062 192.242 366.534 193.89 366.908C195.536 367.264 197.159 367.589 198.785 368.077C200.407 368.554 202.058 369.078 203.637 369.72C205.211 370.364 206.71 371.208 208.063 372.232C209.429 373.252 210.655 374.527 212.365 375.376C213.209 375.789 214.107 376.043 214.974 376.257C215.839 376.457 216.703 376.658 217.566 376.858C219.282 377.255 220.979 377.683 222.655 378.142C226.013 379.063 229.294 380.027 232.4 381.142C233.955 381.699 235.469 382.275 236.926 382.891C238.391 383.515 239.824 384.125 241.22 384.72C244.015 385.902 246.658 387.02 249.097 388.052C250.326 388.555 251.481 389.064 252.654 389.454C253.86 389.797 255.003 389.948 256.098 390.03C258.282 390.179 260.186 389.968 261.715 389.681C263.249 389.397 264.416 389.032 265.207 388.781C265.99 388.508 266.408 388.363 266.408 388.363C266.408 388.363 265.985 388.491 265.191 388.731C264.392 388.955 263.211 389.257 261.683 389.499Z" fill="#D8AB8D"/>
<path d="M295.53 376.676C294.586 376.254 293.505 375.632 292.38 374.758C291.812 374.328 291.218 373.834 290.489 373.42C289.763 373.004 288.906 372.717 287.987 372.576C287.066 372.432 286.082 372.483 285.116 372.621C284.157 372.749 283.181 372.875 282.163 372.96C280.131 373.14 277.978 373.217 275.751 373.249C273.522 373.269 271.217 373.21 268.88 373.076C267.712 373.009 266.534 372.924 265.359 372.816C264.784 372.767 264.228 372.662 263.631 372.559L261.859 372.265C259.492 371.91 257.126 371.592 254.795 371.28C252.466 370.955 250.164 370.722 248.047 370.174C246.975 369.898 245.939 369.588 244.955 369.222C243.98 368.861 243.017 368.38 241.99 368.099C239.973 367.543 237.982 367.338 236.17 367.413C235.269 367.442 234.432 367.462 233.641 367.368C232.856 367.277 232.103 367.102 231.425 366.887C230.06 366.456 228.949 365.86 228.088 365.307C227.225 364.752 226.589 364.25 226.172 363.894C225.752 363.538 225.537 363.338 225.537 363.338C225.537 363.338 225.738 363.55 226.134 363.931C226.532 364.311 227.126 364.863 227.976 365.459C228.82 366.058 229.919 366.715 231.3 367.222C231.992 367.475 232.744 367.688 233.575 367.824C234.401 367.961 235.289 367.953 236.178 367.952C237.948 367.926 239.857 368.181 241.773 368.765C242.719 369.05 243.625 369.535 244.647 369.949C245.658 370.369 246.732 370.681 247.818 370.977C250.028 371.568 252.345 371.82 254.663 372.166C256.987 372.498 259.349 372.838 261.7 373.213L263.461 373.49C264.038 373.585 264.656 373.694 265.267 373.741C266.462 373.84 267.649 373.915 268.829 373.972C271.188 374.086 273.513 374.124 275.764 374.084C278.014 374.048 280.189 373.897 282.241 373.658C283.265 373.544 284.265 373.387 285.215 373.234C286.154 373.073 287.053 373.005 287.909 373.113C288.763 373.218 289.561 373.468 290.254 373.826C290.953 374.18 291.562 374.636 292.155 375.045C293.337 375.878 294.479 376.467 295.451 376.849C296.423 377.238 297.226 377.434 297.771 377.557C298.318 377.677 298.614 377.72 298.614 377.72C298.614 377.72 298.321 377.659 297.785 377.507C297.249 377.353 296.471 377.097 295.53 376.676Z" fill="#E5B798"/>
<path d="M219.32 350.784C218.6 350.772 217.816 350.772 216.987 350.819C216.155 350.862 215.301 350.935 214.422 350.969C213.543 351.004 212.62 350.993 211.693 350.987C210.763 350.974 209.82 350.931 208.877 350.862C207.936 350.803 206.979 350.725 206.055 350.64C205.135 350.543 204.209 350.469 203.4 350.273C202.571 350.06 201.81 349.764 201.095 349.398C200.378 349.031 199.657 348.688 198.987 348.429C197.64 347.897 196.461 347.626 195.637 347.472C195.225 347.392 194.896 347.351 194.674 347.32C194.452 347.293 194.333 347.278 194.333 347.278C194.333 347.278 194.797 347.399 195.586 347.655C196.375 347.911 197.49 348.311 198.748 348.928C199.382 349.237 200.022 349.612 200.733 350.022C201.442 350.438 202.268 350.832 203.164 351.085C204.086 351.334 205.008 351.456 205.953 351.561C206.899 351.659 207.843 351.747 208.807 351.82C209.769 351.881 210.735 351.912 211.685 351.914C212.637 351.92 213.564 351.875 214.473 351.813C215.382 351.754 216.247 351.623 217.05 351.533C217.857 351.446 218.623 351.384 219.335 351.335C220.757 351.243 221.949 351.2 222.784 351.179C223.621 351.161 224.099 351.151 224.099 351.151C224.099 351.151 223.626 351.076 222.792 350.988C221.958 350.902 220.761 350.804 219.32 350.784Z" fill="#E5B798"/>
<path d="M262.558 361.237C262.483 360.938 262.424 360.772 262.424 360.772C262.424 360.772 262.332 361.455 262.194 362.48C262.116 362.984 262.02 363.565 261.893 364.18C261.834 364.486 261.75 364.806 261.675 365.116C261.59 365.452 261.508 365.764 261.413 366.081C261.225 366.721 261.01 367.353 260.786 367.942C260.56 368.53 260.328 369.075 260.121 369.545C259.687 370.49 259.397 371.121 259.397 371.121C259.397 371.121 259.538 371.008 259.763 370.789C259.987 370.571 260.296 370.246 260.619 369.819C260.782 369.607 260.954 369.372 261.114 369.112C261.279 368.854 261.449 368.577 261.595 368.277C261.745 367.98 261.9 367.669 262.026 367.343C262.159 367.019 262.271 366.681 262.375 366.341C262.472 365.997 262.561 365.641 262.621 365.316C262.693 364.966 262.728 364.63 262.762 364.298C262.825 363.638 262.816 363.019 262.765 362.494C262.72 361.968 262.631 361.536 262.558 361.237Z" fill="#E5B798"/>
<path d="M255.822 359.045C255.739 359.339 255.621 359.757 255.479 360.26C255.338 360.756 255.174 361.333 254.998 361.954C254.82 362.564 254.614 363.226 254.408 363.869C254.2 364.518 253.984 365.165 253.773 365.772C253.556 366.379 253.353 366.946 253.18 367.432C253.004 367.924 252.857 368.335 252.754 368.622C252.657 368.916 252.601 369.084 252.601 369.084C252.601 369.084 252.727 368.954 252.929 368.713C253.13 368.473 253.406 368.12 253.697 367.671C253.992 367.225 254.305 366.685 254.591 366.085C254.73 365.783 254.882 365.473 255.006 365.146C255.137 364.823 255.254 364.488 255.364 364.151C255.582 363.471 255.743 362.793 255.856 362.135C255.97 361.483 256.029 360.868 256.045 360.34C256.087 359.283 255.965 358.58 255.965 358.58C255.965 358.58 255.909 358.751 255.822 359.045Z" fill="#E5B798"/>
<path d="M258.589 361.71C258.494 361.94 258.361 362.265 258.212 362.652C258.06 363.035 257.884 363.481 257.694 363.959C257.597 364.194 257.497 364.438 257.395 364.685C257.291 364.93 257.185 365.18 257.079 365.429C256.864 365.927 256.643 366.422 256.431 366.887C256.214 367.354 256.011 367.79 255.838 368.164C255.659 368.539 255.515 368.86 255.413 369.087C255.314 369.315 255.26 369.45 255.26 369.45C255.26 369.45 255.749 369.111 256.322 368.46C256.612 368.137 256.921 367.736 257.21 367.282C257.353 367.053 257.503 366.817 257.632 366.566C257.767 366.318 257.886 366.057 258.003 365.796C258.117 365.523 258.218 365.266 258.307 364.999C258.399 364.733 258.465 364.464 258.534 364.206C258.663 363.688 258.738 363.195 258.77 362.77C258.843 361.92 258.746 361.348 258.746 361.348C258.746 361.348 258.685 361.481 258.589 361.71Z" fill="#E5B798"/>
<path d="M201.151 356.997L204.083 351.767C203.635 352.302 203.165 352.933 202.714 353.663C201.961 354.883 201.473 356.035 201.151 356.997Z" fill="#E5B798"/>
<path d="M203.38 352.431C202.985 352.854 202.522 353.472 202.147 354.139C201.772 354.806 201.492 355.519 201.341 356.068C201.185 356.616 201.151 356.997 201.151 356.997C201.151 356.997 201.346 356.665 201.609 356.167C201.875 355.67 202.221 355.013 202.588 354.367C202.948 353.717 203.326 353.077 203.613 352.59C203.9 352.105 204.083 351.767 204.083 351.767C204.083 351.767 203.77 352.004 203.38 352.431Z" fill="#E5B798"/>
<path d="M204.863 353.674C204.676 354.017 204.513 354.393 204.361 354.781C204.068 355.554 203.892 356.365 203.832 356.977C203.765 357.59 203.8 358.003 203.8 358.003C203.8 358.003 203.932 357.61 204.113 357.032C204.296 356.453 204.544 355.692 204.831 354.944C204.967 354.57 205.121 354.195 205.263 353.849C205.413 353.501 205.552 353.177 205.671 352.899C205.919 352.344 206.08 351.961 206.08 351.961C206.08 351.961 205.778 352.256 205.42 352.768C205.239 353.022 205.045 353.33 204.863 353.674Z" fill="#E5B798"/>
<path d="M140.611 349.714C139.382 350.149 138.649 351.098 138.199 352.012C138.211 352.032 138.221 352.053 138.233 352.073C139.333 353.857 141.373 354.072 147.178 355.107C147.178 355.107 148.611 355.363 150.792 355.788C150.817 355.2 150.76 354.553 150.534 353.885C149.342 350.348 141.948 349.24 140.611 349.714Z" fill="#EFD2C2"/>
<path d="M153.076 346.834C151.732 346.852 149.987 347.608 149.96 348.347C149.933 349.068 150.747 349.469 155.072 351.405C157.355 352.427 159.812 353.042 160.813 352.34C160.903 352.277 161.17 352.047 161.305 351.686C161.715 350.59 154.383 346.816 153.076 346.834Z" fill="#EFD2C2"/>
<path d="M230.994 348.682C230.62 348.722 230.186 348.8 229.729 348.923C229.274 349.049 228.798 349.221 228.346 349.444C228.118 349.552 227.899 349.678 227.688 349.808C227.484 349.944 227.272 350.078 227.097 350.22C226.733 350.497 226.398 350.775 226.138 351.04C225.882 351.307 225.669 351.562 225.645 351.812C225.641 351.938 225.702 352.009 225.72 352.059C225.743 352.109 225.746 352.14 225.746 352.14C225.746 352.14 225.754 352.11 225.75 352.053C225.748 351.995 225.725 351.911 225.751 351.828C225.809 351.657 226.065 351.476 226.347 351.266C226.64 351.058 226.992 350.831 227.372 350.58C227.56 350.459 227.755 350.333 227.952 350.206C228.154 350.089 228.362 349.975 228.573 349.865C230.272 348.997 232.245 348.661 232.245 348.661C232.245 348.661 231.745 348.605 230.994 348.682Z" fill="#E5B798"/>
<path d="M238.393 353.317C237.586 351.899 229.777 351.092 228.764 351.231C226.381 351.557 224.015 351.88 222.381 353.842C222.229 354.024 220.23 356.5 221.113 359.261C221.313 359.887 221.873 361.189 224.216 362.675C227.867 364.99 236.998 365.535 237.857 364.19C239.019 362.369 239.159 360.042 238.851 355.566C238.746 354.047 238.581 353.648 238.393 353.317Z" fill="#F2D9C5"/>
<path d="M222.381 353.842C222.229 354.024 220.23 356.5 221.113 359.261C221.313 359.887 221.873 361.189 224.216 362.675C224.482 362.844 224.779 363.001 225.098 363.151C224.726 362.519 224.445 361.947 224.238 361.475C223.717 360.287 223.329 359.377 223.301 358.099C223.288 357.517 223.277 356.361 223.94 355.149C224.16 354.745 224.411 354.11 225.728 353.1C226.435 352.557 227.549 351.869 228.95 351.219C228.876 351.221 228.81 351.225 228.764 351.231C226.381 351.557 224.015 351.881 222.381 353.842Z" fill="#F9EBE1"/>
<path d="M238.759 354.598C238.067 354.829 237.285 355.246 236.676 356.008C235.407 357.596 235.625 359.756 236.579 361.207C237.121 362.033 237.849 362.547 238.489 362.866C239.056 361.213 239.09 359.037 238.851 355.565C238.824 355.174 238.793 354.859 238.759 354.598Z" fill="#F9EBE1"/>
<path d="M140.611 349.714C139.382 350.149 138.649 351.098 138.199 352.012C138.211 352.032 138.221 352.053 138.233 352.073C138.419 352.374 138.635 352.627 138.887 352.85C139.164 352.449 139.505 352.031 139.93 351.622C140.978 350.613 142.128 350.049 143.052 349.729C141.922 349.573 141.004 349.574 140.611 349.714Z" fill="#F2E8E2"/>
<path d="M149.96 348.347C149.949 348.651 150.091 348.899 150.577 349.227C150.972 348.95 151.399 348.674 151.867 348.407C152.755 347.901 153.626 347.518 154.451 347.218C153.829 346.976 153.334 346.83 153.076 346.834C151.732 346.852 149.987 347.608 149.96 348.347Z" fill="#F2E8E2"/>
<path d="M150.272 353.307C149.959 353.461 149.627 353.681 149.324 354.004C148.893 354.465 148.682 354.96 148.576 355.365C149.166 355.476 149.918 355.618 150.793 355.789C150.817 355.201 150.76 354.554 150.535 353.885C150.467 353.685 150.377 353.493 150.272 353.307Z" fill="#F2E8E2"/>
<path d="M159.999 351.428C159.622 351.738 159.394 352.171 159.329 352.632C159.95 352.664 160.468 352.582 160.812 352.34C160.902 352.277 161.169 352.047 161.304 351.686C161.369 351.514 161.242 351.276 160.979 350.998C160.622 351.053 160.281 351.195 159.999 351.428Z" fill="#F2E8E2"/>
<path d="M363.368 419.098L500 476.579V404.404L390.904 356.72L363.368 419.098Z" fill="#E2584D"/>
<path opacity="0.09" d="M382.288 427.016L391.024 430.858L419.818 369.777L411.097 366.152L382.288 427.016Z" fill="black"/>
<path d="M411.771 357.79L405.378 355.215C393.253 350.333 379.301 355.811 374.216 367.451L352.836 416.38C351.788 418.778 352.964 421.538 355.463 422.544L379.285 432.137C381.784 433.143 384.659 432.014 385.707 429.616L414.397 363.954C415.445 361.557 414.269 358.796 411.771 357.79Z" fill="#EF6660"/>
<path d="M390.838 366.276C387.668 366.959 385.675 369.981 386.386 373.024C387.098 376.068 390.245 377.981 393.416 377.298C396.586 376.615 398.579 373.594 397.868 370.55C397.156 367.506 394.009 365.593 390.838 366.276ZM390.814 370.359C390.699 369.868 391.021 369.381 391.533 369.27C392.044 369.16 392.552 369.469 392.667 369.96C392.782 370.451 392.46 370.939 391.949 371.049C391.437 371.16 390.929 370.851 390.814 370.359ZM392.651 374.055C392.14 374.165 391.632 373.856 391.517 373.365C391.402 372.874 391.723 372.386 392.235 372.276C392.747 372.166 393.255 372.475 393.37 372.966C393.485 373.457 393.163 373.945 392.651 374.055Z" fill="#FFC7C7"/>
</svg>
