<svg width="32" height="32" viewBox="0 0 32 32" fill="none" xmlns="http://www.w3.org/2000/svg">
<path d="M13.7867 21.12C12.8693 21.04 11.9387 21 11 21H10C8.4087 21 6.88258 20.3679 5.75736 19.2426C4.63214 18.1174 4 16.5913 4 15C4 13.4087 4.63214 11.8826 5.75736 10.7574C6.88258 9.63214 8.4087 9 10 9H11C11.9387 9 12.8693 8.96 13.7867 8.88M13.7867 21.12C14.124 22.4027 14.5653 23.6427 15.1 24.8307C15.4293 25.564 15.18 26.444 14.4827 26.8453L13.6067 27.352C12.872 27.776 11.9267 27.508 11.5707 26.7373C10.7257 24.9094 10.0819 22.995 9.65067 21.028M13.7867 21.12C13.2626 19.1223 12.9982 17.0653 13 15C13 12.8853 13.2733 10.8347 13.7867 8.88M13.7867 21.12C17.8954 21.4721 21.8963 22.6201 25.5667 24.5M13.7867 8.88C17.8954 8.52789 21.8963 7.37991 25.5667 5.5M25.5667 24.5C25.4093 25.0067 25.24 25.5053 25.06 26M25.5667 24.5C26.292 22.1621 26.7457 19.7484 26.9187 17.3067M25.5667 5.5C25.4103 4.99585 25.2414 4.4957 25.06 4M25.5667 5.5C26.292 7.83792 26.7457 10.2516 26.9187 12.6933M26.9187 12.6933C27.5787 13.244 28 14.0733 28 15C28 15.9267 27.5787 16.756 26.9187 17.3067M26.9187 12.6933C27.0281 14.2292 27.0281 15.7708 26.9187 17.3067" stroke="#276CDA" stroke-width="2" stroke-linecap="round" stroke-linejoin="round"/>
</svg>
