<svg width="32" height="32" viewBox="0 0 32 32" fill="none" xmlns="http://www.w3.org/2000/svg">
<g clip-path="url(#clip0_478_1386)">
<path d="M16 28C13.9243 27.4616 11.978 26.5114 10.2767 25.206C8.57548 23.9005 7.15402 22.2664 6.0968 20.4007C5.03958 18.535 4.36818 16.4759 4.1225 14.3456C3.87683 12.2153 4.06188 10.0574 4.66667 8C8.82071 8.19009 12.8856 6.75543 16 4C19.1144 6.75543 23.1793 8.19009 27.3333 8C28.0907 10.5773 28.18 13.276 27.6307 15.8533" stroke="#276CDA" stroke-width="2" stroke-linecap="round" stroke-linejoin="round"/>
<path d="M22.668 25.3334C22.668 26.0407 22.949 26.7189 23.449 27.219C23.9491 27.7191 24.6274 28.0001 25.3347 28.0001C26.0419 28.0001 26.7202 27.7191 27.2203 27.219C27.7204 26.7189 28.0013 26.0407 28.0013 25.3334C28.0013 24.6262 27.7204 23.9479 27.2203 23.4478C26.7202 22.9477 26.0419 22.6667 25.3347 22.6667C24.6274 22.6667 23.9491 22.9477 23.449 23.4478C22.949 23.9479 22.668 24.6262 22.668 25.3334Z" stroke="#276CDA" stroke-width="2" stroke-linecap="round" stroke-linejoin="round"/>
<path d="M25.3347 20.6667V22.6667" stroke="#276CDA" stroke-width="2" stroke-linecap="round" stroke-linejoin="round"/>
<path d="M25.3347 28V30" stroke="#276CDA" stroke-width="2" stroke-linecap="round" stroke-linejoin="round"/>
<path d="M29.376 23L27.644 24" stroke="#276CDA" stroke-width="2" stroke-linecap="round" stroke-linejoin="round"/>
<path d="M23.0267 26.6667L21.2933 27.6667" stroke="#276CDA" stroke-width="2" stroke-linecap="round" stroke-linejoin="round"/>
<path d="M21.2933 23L23.0267 24" stroke="#276CDA" stroke-width="2" stroke-linecap="round" stroke-linejoin="round"/>
<path d="M27.644 26.6667L29.3773 27.6667" stroke="#276CDA" stroke-width="2" stroke-linecap="round" stroke-linejoin="round"/>
</g>
<defs>
<clipPath id="clip0_478_1386">
<rect width="32" height="32" fill="white"/>
</clipPath>
</defs>
</svg>
